<?xml version="1.0" encoding="utf-8"?>
<!-- Generator: Adobe Illustrator 25.4.1, SVG Export Plug-In . SVG Version: 6.00 Build 0)  -->
<svg version="1.1" id="Capa_1" xmlns="http://www.w3.org/2000/svg" xmlns:xlink="http://www.w3.org/1999/xlink" x="0px" y="0px"
	 viewBox="0 0 256.43 374.94" style="enable-background:new 0 0 256.43 374.94;" xml:space="preserve">
<path d="M243.03,76.63c-0.31-2.05-0.68-3.76-0.82-5.49c-1.04-12.76-3.97-25.03-8.88-36.88c-4.78-11.54-12.69-20.15-24.36-24.33
	c-8.54-3.06-17.53-5.3-26.52-6.55c-10.22-1.43-20.66-1.17-30.97-1.97C122.47-0.84,93.5-0.61,64.72,3.71
	c-8.35,1.25-16.94,3.58-24.4,7.41c-11,5.64-17.58,15.73-20.25,27.82c-3.1,14.09-5.6,28.32-8.46,43c-9.38,2.43-11.84,9.81-11.6,18.87
	c0.08,2.96-0.02,5.93,0.21,8.88c0.74,9.74,3.08,18.73,12.5,24.04c2.05,33.31,23.86,46.71,54.83,52.47
	c-21.7,13.08-37.77,29.26-47.49,50.74c-9.66,21.34-16.44,43.51-14.38,66.95c7.96,4.59,16.58,5.61,23.66,2.04
	c10.24-5.16,16.66-14.24,23.33-23.52c-2.82-5.95-5.32-11.24-7.99-16.87c1.32-14.97,9.64-24.85,24.44-30.82
	c3.34,10.89,6.51,21.26,9.74,31.79c-6.22,7.77-12.04,15.2-18.04,22.49c-6.71,8.16-10.02,17.41-8.88,27.94
	c0.69,6.42,2.02,12.77,3.2,19.96c-1.96,1.55-4.37,3.19-6.48,5.17c-4.08,3.82-8.67,7.36-11.77,11.89
	c-3.66,5.35-6.08,11.62-0.78,18.81c3.73,0.65,8.03,1.91,12.36,2.06c19.06,0.69,37.74-1.99,56.07-7.12
	c10.35-2.89,12.91-7.06,10.7-17.69c-0.9-4.31-2.3-8.58-3.98-12.66c-2.68-6.49-5.78-12.81-8.7-19.2c12.1-21.56,35.56-21.32,48.84-0.9
	c-2.83,6.17-6.1,12.18-8.35,18.55c-2.05,5.78-3.61,11.89-4.26,17.97c-0.84,7.87,0.3,9.37,7.76,11.51c7.35,2.1,14.86,3.8,22.4,5.02
	c15.23,2.48,30.56,3.64,45.92,1.24c3.03-0.48,5.89-2.03,9.31-3.26c0.64-18.03-11.87-24.98-25.1-32.17c0.66-2.9,1.09-5.73,1.96-8.43
	c5.05-15.76,2.19-29.75-9.2-41.86c-2.84-3.02-5.97-5.75-8.71-8.85c-3.08-3.49-5.87-7.25-8.51-10.55c3.44-11.24,6.6-21.56,9.97-32.57
	c13.5,7.44,22.37,16.94,24.98,30.69c-1.97,4.89-3.8,9.21-5.45,13.59c-2.09,5.51-0.17,9.67,4.36,13.15c3,2.31,5.85,4.9,8.42,7.68
	c5.87,6.36,12.55,9.17,21.42,7.33c9.44-1.96,10.96-3.03,10.95-12.6c-0.01-12.58-3.7-24.44-7.31-36.33
	c-8.4-27.66-25.42-49.04-48.03-66.4c-1.43-1.1-2.83-2.23-4.74-3.75c15.63-3.09,29.22-7.77,40.56-18.45
	c12.15-11.45,14.03-26.08,14.96-41.21c6.16-3.95,9.25-9.5,10.14-16.26c0.65-4.95,1.15-9.93,1.48-14.91
	C256.99,86.5,254.05,78.82,243.03,76.63z M86.4,98.02c-10.24,0-18.54-8.3-18.54-18.54s8.3-18.54,18.54-18.54
	c10.24,0,18.54,8.3,18.54,18.54S96.64,98.02,86.4,98.02z M167.46,98.02c-10.24,0-18.54-8.3-18.54-18.54s8.3-18.54,18.54-18.54
	S186,69.25,186,79.48S177.7,98.02,167.46,98.02z"/>
</svg>
